REM DIRINDEX 1\2\6,1\2\7,1\2\8,1\3\9,1\3\10,1\3\11,1\4\12,1\4\13,1\4\14,1\5\15,1\5\16,1\5\17,1\5\18
REM DIRNAME folder01,folder02,folder03,folder04,folder05,folder06,folder07,folder08,folder09,folder10,folder11,folder12,folder13,folder14,folder15,folder16,folder17,folder18
TITLE ""
FILE "2Q_k_021-030.mp3" MP3
  TRACK 01 AUDIO
    TITLE "9:cjc019_1659"
    INDEX 01 00:00:00
  TRACK 02 AUDIO
    TITLE "0:"
    INDEX 01 00:01:17
  TRACK 03 AUDIO
    TITLE "10:cjc019_1660"
    INDEX 01 00:02:04
  TRACK 04 AUDIO
    TITLE "0:"
    INDEX 01 00:04:74
  TRACK 05 AUDIO
    TITLE "11:cjc019_1661"
    INDEX 01 00:05:54
  TRACK 06 AUDIO
    TITLE "11:cjc019_1662"
    INDEX 01 00:09:53
  TRACK 07 AUDIO
    TITLE "0:"
    INDEX 01 00:16:02
  TRACK 08 AUDIO
    TITLE "9:cjc019_1663"
    INDEX 01 00:16:55
  TRACK 09 AUDIO
    TITLE "0:"
    INDEX 01 00:18:17
  TRACK 10 AUDIO
    TITLE "10:cjc019_1664"
    INDEX 01 00:18:74
  TRACK 11 AUDIO
    TITLE "0:"
    INDEX 01 00:20:08
  TRACK 12 AUDIO
    TITLE "11:cjc019_1665"
    INDEX 01 00:20:57
  TRACK 13 AUDIO
    TITLE "11:cjc019_1666"
    INDEX 01 00:26:26
  TRACK 14 AUDIO
    TITLE "0:"
    INDEX 01 00:31:47
  TRACK 15 AUDIO
    TITLE "9:cjc019_1667"
    INDEX 01 00:32:25
  TRACK 16 AUDIO
    TITLE "0:"
    INDEX 01 00:34:38
  TRACK 17 AUDIO
    TITLE "10:cjc019_1668"
    INDEX 01 00:35:15
  TRACK 18 AUDIO
    TITLE "0:"
    INDEX 01 00:36:54
  TRACK 19 AUDIO
    TITLE "11:cjc019_1669"
    INDEX 01 00:37:30
  TRACK 20 AUDIO
    TITLE "11:cjc019_1670"
    INDEX 01 00:38:67
  TRACK 21 AUDIO
    TITLE "0:"
    INDEX 01 00:41:06
  TRACK 22 AUDIO
    TITLE "9:cjc019_1671"
    INDEX 01 00:41:69
  TRACK 23 AUDIO
    TITLE "0:"
    INDEX 01 00:43:27
  TRACK 24 AUDIO
    TITLE "10:cjc019_1672"
    INDEX 01 00:44:07
  TRACK 25 AUDIO
    TITLE "0:"
    INDEX 01 00:45:30
  TRACK 26 AUDIO
    TITLE "11:cjc019_1673"
    INDEX 01 00:46:04
  TRACK 27 AUDIO
    TITLE "11:cjc019_1674"
    INDEX 01 00:50:68
  TRACK 28 AUDIO
    TITLE "0:"
    INDEX 01 00:53:11
  TRACK 29 AUDIO
    TITLE "9:cjc019_1675"
    INDEX 01 00:53:64
  TRACK 30 AUDIO
    TITLE "0:"
    INDEX 01 00:56:00
  TRACK 31 AUDIO
    TITLE "10:cjc019_1676"
    INDEX 01 00:56:53
  TRACK 32 AUDIO
    TITLE "0:"
    INDEX 01 00:58:38
  TRACK 33 AUDIO
    TITLE "11:cjc019_1677"
    INDEX 01 00:59:18
  TRACK 34 AUDIO
    TITLE "11:cjc019_1678"
    INDEX 01 01:04:23
  TRACK 35 AUDIO
    TITLE "0:"
    INDEX 01 01:06:00
  TRACK 36 AUDIO
    TITLE "9:cjc019_1679"
    INDEX 01 01:06:57
  TRACK 37 AUDIO
    TITLE "0:"
    INDEX 01 01:08:09
  TRACK 38 AUDIO
    TITLE "10:cjc019_1680"
    INDEX 01 01:08:50
  TRACK 39 AUDIO
    TITLE "0:"
    INDEX 01 01:09:57
  TRACK 40 AUDIO
    TITLE "11:cjc019_1681"
    INDEX 01 01:10:31
  TRACK 41 AUDIO
    TITLE "11:cjc019_1682"
    INDEX 01 01:13:67
  TRACK 42 AUDIO
    TITLE "11:cjc019_1683"
    INDEX 01 01:15:05
  TRACK 43 AUDIO
    TITLE "0:"
    INDEX 01 01:18:21
  TRACK 44 AUDIO
    TITLE "9:cjc019_1684"
    INDEX 01 01:19:03
  TRACK 45 AUDIO
    TITLE "0:"
    INDEX 01 01:20:44
  TRACK 46 AUDIO
    TITLE "10:cjc019_1685"
    INDEX 01 01:21:21
  TRACK 47 AUDIO
    TITLE "0:"
    INDEX 01 01:23:44
  TRACK 48 AUDIO
    TITLE "11:cjc019_1686"
    INDEX 01 01:24:24
  TRACK 49 AUDIO
    TITLE "11:cjc019_1687"
    INDEX 01 01:27:01
  TRACK 50 AUDIO
    TITLE "0:"
    INDEX 01 01:30:62
  TRACK 51 AUDIO
    TITLE "9:cjc019_1688"
    INDEX 01 01:31:39
  TRACK 52 AUDIO
    TITLE "0:"
    INDEX 01 01:32:68
  TRACK 53 AUDIO
    TITLE "10:cjc019_1689"
    INDEX 01 01:33:46
  TRACK 54 AUDIO
    TITLE "0:"
    INDEX 01 01:35:47
  TRACK 55 AUDIO
    TITLE "11:cjc019_1690"
    INDEX 01 01:36:21
  TRACK 56 AUDIO
    TITLE "11:cjc019_1691"
    INDEX 01 01:38:04
  TRACK 57 AUDIO
    TITLE "0:"
    INDEX 01 01:43:41
  TRACK 58 AUDIO
    TITLE "9:cjc019_1692"
    INDEX 01 01:44:23
  TRACK 59 AUDIO
    TITLE "0:"
    INDEX 01 01:46:12
  TRACK 60 AUDIO
    TITLE "10:cjc019_1693"
    INDEX 01 01:46:61
  TRACK 61 AUDIO
    TITLE "0:"
    INDEX 01 01:48:18
  TRACK 62 AUDIO
    TITLE "11:cjc019_1694"
    INDEX 01 01:49:00
  TRACK 63 AUDIO
    TITLE "11:cjc019_1695"
    INDEX 01 01:51:52
  TRACK 64 AUDIO
    TITLE "0:"
    INDEX 01 01:57:15
  TRACK 65 AUDIO
    TITLE "9:cjc019_1696"
    INDEX 01 01:57:64
  TRACK 66 AUDIO
    TITLE "0:"
    INDEX 01 01:59:38
  TRACK 67 AUDIO
    TITLE "10:cjc019_1697"
    INDEX 01 02:00:14
  TRACK 68 AUDIO
    TITLE "0:"
    INDEX 01 02:02:56
  TRACK 69 AUDIO
    TITLE "11:cjc019_1698"
    INDEX 01 02:03:38
  TRACK 70 AUDIO
    TITLE "11:cjc019_1699"
    INDEX 01 02:05:36
  TRACK 71 AUDIO
    TITLE "0:"
    INDEX 01 02:07:57
